<?xml version="1.0" encoding="UTF-8"?>
<svg width="24px" height="24px" viewBox="0 0 24 24" version="1.1" xmlns="http://www.w3.org/2000/svg" xmlns:xlink="http://www.w3.org/1999/xlink">
    <title>ic_wishlist_md_gray_not_filled</title>
    <g id="Symbol" stroke="none" stroke-width="1" fill="none" fill-rule="evenodd">
        <g id="Wishlist/MD/gray/1.-Not-Filled" stroke="#CED4DA" stroke-width="1.5">
            <path d="M11.5742394,6.09242725 C10.6792879,5.19747575 9.50631062,4.75 8.33333333,4.75 C7.16035604,4.75 5.98737875,5.19747575 5.09242725,6.09242725 C4.19747575,6.98737875 3.75,8.16035604 3.75,9.33333333 C3.75,10.5063106 4.19747575,11.6792879 5.09242725,12.5742394 L12.1045695,19.5863817 L19.1167117,12.5742394 C20.0116632,11.6792879 20.459139,10.5063106 20.459139,9.33333333 C20.459139,8.16035604 20.0116632,6.98737875 19.1167117,6.09242725 C18.2217602,5.19747575 17.048783,4.75 15.8758057,4.75 C14.7028284,4.75 13.5298511,5.19747575 12.6348996,6.09242725 C12.43607,6.29125681 12.2593273,6.50380933 12.1046713,6.72703602 C11.9499089,6.50392612 11.7731236,6.29131143 11.5742394,6.09242725 Z" id="combined-shape"></path>
        </g>
    </g>
</svg>