<svg width="20" height="20" viewBox="0 0 20 20" fill="none" xmlns="http://www.w3.org/2000/svg">
<path fill-rule="evenodd" clip-rule="evenodd" d="M13.554 1.34988C13.554 2.22488 13.234 3.04188 12.597 3.79888C11.828 4.69788 10.898 5.21688 9.889 5.13488C9.876 5.02988 9.869 4.91988 9.869 4.80388C9.869 3.96388 10.235 3.06388 10.884 2.32888C11.208 1.95688 11.621 1.64788 12.121 1.40088C12.62 1.15788 13.092 1.02288 13.536 0.999878C13.549 1.11688 13.554 1.23388 13.554 1.34988M16.93 14.6369C16.666 15.2479 16.353 15.8099 15.99 16.3279C15.495 17.0329 15.09 17.5209 14.778 17.7919C14.294 18.2379 13.776 18.4659 13.221 18.4779C12.822 18.4779 12.341 18.3649 11.782 18.1349C11.221 17.9059 10.704 17.7919 10.233 17.7919C9.738 17.7919 9.207 17.9059 8.64 18.1349C8.072 18.3649 7.614 18.4849 7.264 18.4969C6.731 18.5189 6.2 18.2849 5.671 17.7919C5.333 17.4979 4.91 16.9919 4.404 16.2759C3.86 15.5119 3.413 14.6239 3.063 13.6139C2.688 12.5219 2.5 11.4639 2.5 10.4399C2.5 9.26788 2.754 8.25588 3.261 7.40888C3.66 6.72788 4.191 6.19088 4.855 5.79688C5.519 5.40288 6.237 5.20188 7.01 5.18888C7.432 5.18888 7.987 5.31988 8.676 5.57688C9.363 5.83488 9.804 5.96488 9.998 5.96488C10.142 5.96488 10.633 5.81188 11.464 5.50788C12.249 5.22488 12.912 5.10788 13.456 5.15388C14.928 5.27288 16.034 5.85288 16.769 6.89788C15.453 7.69588 14.802 8.81388 14.815 10.2469C14.826 11.3639 15.231 12.2929 16.028 13.0299C16.388 13.3729 16.791 13.6379 17.24 13.8259C17.142 14.1069 17.039 14.3769 16.93 14.6369" fill="#666D75"/>
</svg>
