<svg xmlns="http://www.w3.org/2000/svg" width="24" height="24" viewBox="0 0 24 24">
  <g fill="none" fill-rule="evenodd">
    <rect width="24" height="24"/>
    <path stroke="#666D75" stroke-width="1.5" d="M12,2.75 C14.554317,2.75 16.866817,3.78534152 18.5407377,5.45926227 C20.2146585,7.13318303 21.25,9.44568303 21.25,12 C21.25,13.6928431 20.7954842,15.27957 20.0013586,16.6444766 C20.3037776,18.5362707 20.5516476,19.5429621 20.6693088,20.2491035 C19.9134866,20.3299481 19.1123492,19.9862061 18.0895662,19.4956084 C15.8253364,20.6244861 13.9856903,21.25 12,21.25 C9.44568303,21.25 7.13318303,20.2146585 5.45926227,18.5407377 C3.78534152,16.866817 2.75,14.554317 2.75,12 C2.75,9.44568303 3.78534152,7.13318303 5.45926227,5.45926227 C7.13318303,3.78534152 9.44568303,2.75 12,2.75 L12,2.75 Z"/>
    <ellipse cx="9" cy="12" fill="#666D75" rx="1" ry="2"/>
    <ellipse cx="15" cy="12" fill="#666D75" rx="1" ry="2"/>
  </g>
</svg>
