<svg xmlns="http://www.w3.org/2000/svg" width="24" height="24" viewBox="0 0 24 24">
  <g fill="none" fill-rule="evenodd">
    <rect width="24" height="24"/>
    <g stroke="#666D75" stroke-width="1.5" transform="translate(3 3)">
      <path d="M7.5,0.75 C5.6353125,0.75 3.94776745,1.50508022 2.72642384,2.72642384 C1.50508022,3.94776745 0.75,5.6353125 0.75,7.5 C0.75,9.3646875 1.50508022,11.0522325 2.72642384,12.2735762 C3.94776745,13.4949198 5.6353125,14.25 7.5,14.25 C9.3646875,14.25 11.0522325,13.4949198 12.2735762,12.2735762 C13.4949198,11.0522325 14.25,9.3646875 14.25,7.5 C14.25,5.6353125 13.4949198,3.94776745 12.2735762,2.72642384 C11.0522325,1.50508022 9.3646875,0.75 7.5,0.75 Z"/>
      <line x1="12.5" x2="17.5" y1="12.5" y2="17.5" stroke-linecap="round"/>
    </g>
  </g>
</svg>
